<?xml version="1.0" standalone="no"?>
<!DOCTYPE svg PUBLIC "-//W3C//DTD SVG 20010904//EN"
 "http://www.w3.org/TR/2001/REC-SVG-20010904/DTD/svg10.dtd">
<svg version="1.0" xmlns="http://www.w3.org/2000/svg"
 width="512.000000pt" height="512.000000pt" viewBox="0 0 512.000000 512.000000"
 preserveAspectRatio="xMidYMid meet">
<metadata>
Created by potrace 1.11, written by Peter Selinger 2001-2013
</metadata>
<g transform="translate(0.000000,512.000000) scale(0.100000,-0.100000)"
fill="#000000" stroke="none">
<path d="M393 5105 c-191 -52 -348 -217 -383 -404 -14 -74 -14 -4208 0 -4282
37 -196 213 -372 409 -409 74 -14 4208 -14 4282 0 196 37 372 213 409 409 14
74 14 4208 0 4282 -36 189 -193 354 -387 404 -84 22 -4249 21 -4330 0z m3873
-1042 c17 -8 42 -25 55 -39 21 -22 24 -36 24 -99 0 -85 -22 -128 -69 -133 -32
-4 -50 9 -83 61 -40 63 -59 77 -106 77 -96 0 -229 -108 -288 -233 -52 -113
-62 -188 -49 -372 27 -382 139 -1556 176 -1845 29 -233 45 -270 114 -270 22 0
63 9 91 20 54 22 62 20 73 -17 8 -26 -18 -46 -134 -102 -114 -55 -205 -74
-338 -70 -93 4 -115 8 -164 32 -69 34 -113 84 -134 152 -35 117 -102 660 -149
1205 -14 162 -26 306 -28 320 -5 56 -222 -367 -433 -842 l-118 -268 -77 0 -78
0 -295 583 c-209 412 -296 573 -296 552 -1 -84 -41 -805 -50 -900 -22 -222
-55 -362 -116 -494 -74 -158 -199 -261 -374 -308 -93 -25 -338 -25 -436 0
-124 32 -214 100 -214 162 0 78 63 165 119 165 27 0 36 -7 59 -46 75 -127 121
-167 215 -184 75 -14 177 0 256 35 133 60 215 200 256 440 30 172 87 934 101
1340 l6 190 -32 57 c-39 72 -77 104 -132 112 -155 23 -414 -121 -478 -267 -59
-134 -18 -262 84 -262 31 0 59 10 112 43 57 34 76 41 102 36 63 -13 105 -79
105 -164 -2 -167 -148 -275 -337 -249 -233 31 -346 285 -246 552 79 212 300
374 598 439 129 28 365 31 462 5 142 -38 227 -103 300 -227 23 -40 140 -270
259 -513 l216 -440 154 299 c475 923 714 1278 953 1418 119 69 274 90 364 49z"/>
</g>
</svg>
