<svg width="175" height="175" fill="none" xmlns="http://www.w3.org/2000/svg"><g clip-path="url(#clip0)"><path d="M33.23 124.76c1.014.102 1.833.458 2.445 1.055.612.597.968 1.362 1.068 2.295l-2.041-.206a1.844 1.844 0 00-.612-.938c-.283-.245-.645-.384-1.074-.427-.564-.057-1.035.101-1.427.483-.391.382-.616.917-.685 1.605-.07.688.044 1.258.352 1.711.308.441.74.689 1.303.746.429.043.811-.021 1.137-.205.337-.182.603-.44.786-.787l2.041.206c-.283.883-.784 1.561-1.503 2.025-.72.474-1.593.66-2.608.558-.778-.079-1.438-.316-1.989-.725a3.403 3.403 0 01-1.21-1.568c-.264-.653-.351-1.368-.272-2.158.08-.789.308-1.473.697-2.06a3.501 3.501 0 011.499-1.308c.62-.279 1.314-.38 2.092-.302zM45.122 125.768c.757.058 1.422.28 2.017.678a3.82 3.82 0 011.335 1.569c.302.648.428 1.374.369 2.154-.06.78-.296 1.478-.694 2.073a3.851 3.851 0 01-1.57 1.346 4.11 4.11 0 01-2.087.374 4.03 4.03 0 01-1.993-.688 3.702 3.702 0 01-1.346-1.57c-.314-.649-.44-1.375-.38-2.155.06-.78.295-1.478.705-2.072a3.786 3.786 0 011.57-1.346c.637-.303 1.328-.421 2.074-.363zm-.138 1.797c-.633-.049-1.146.116-1.551.506-.404.378-.639.917-.694 1.629-.053.701.096 1.27.437 1.716.34.447.822.689 1.455.737.622.048 1.146-.116 1.551-.506.405-.389.64-.928.694-1.629.054-.701-.084-1.268-.425-1.715-.341-.447-.834-.69-1.467-.738zM58.688 126.767l-.086 1.539-3.282-.183-.099 1.754 2.535.142-.082 1.471-2.535-.142-.182 3.237-1.935-.108.448-8.002 5.218.292zM68.148 127.172l-.06 1.541-3.285-.127-.068 1.755 2.537.099-.056 1.472-2.538-.098-.125 3.239-1.937-.075.31-8.008 5.222.202zM74.303 128.881l-.037 1.678 2.709.059-.032 1.462-2.709-.06-.039 1.78 3.049.067-.034 1.552-4.987-.109.176-8.012 4.987.109-.034 1.541-3.049-.067zM83.696 129.018l-.01 1.678 2.71.014-.008 1.463-2.71-.015-.01 1.779 3.05.017-.008 1.553-4.988-.027.044-8.014 4.988.027-.009 1.542-3.049-.017zM101.596 131.204c.49.102.88.332 1.171.677.291.345.436.762.446 1.226.015.691-.2 1.229-.645 1.624-.456.396-1.109.603-1.959.621l-3.728.082-.175-8.013 3.638-.079c.816-.018 1.454.15 1.904.491.449.342.687.847.702 1.504.01.488-.106.887-.36 1.21a1.763 1.763 0 01-.994.657zm-2.88-.55l1.269-.027c.668-.015 1.002-.306.989-.884-.012-.578-.359-.854-1.05-.839l-1.246.028.037 1.722zm1.451 3.132c.714-.016 1.07-.318 1.057-.908-.006-.283-.102-.508-.298-.673-.196-.155-.459-.228-.81-.221l-1.371.03.04 1.802 1.382-.03zM109.353 128.611l.067 1.676 2.707-.107.058 1.461-2.707.107.07 1.779 3.047-.121.061 1.552-4.983.197-.318-8.008 4.984-.197.061 1.54-3.047.121zM122.034 132.998l-2.998.175-.413 1.489-2.037.119 2.466-8.115 2.229-.131 3.396 7.773-2.059.12-.584-1.43zm-.584-1.442l-1.168-2.884-.835 3.001 2.003-.117zM135.899 133.44l-1.932.156-3.627-4.643.396 4.903-1.932.156-.645-7.988 1.933-.156 3.63 4.688-.399-4.949 1.932-.155.644 7.988zM146.126 130.169c.042.417-.019.822-.197 1.193-.179.372-.466.686-.861.943-.395.257-.892.411-1.49.472-.891.091-1.657-.047-2.277-.428-.62-.381-.998-.957-1.134-1.73l2.052-.21c.065.301.191.528.4.677a.994.994 0 00.725.188c.249-.026.433-.113.566-.263.133-.151.182-.338.159-.563a.73.73 0 00-.244-.488 1.759 1.759 0 00-.531-.288c-.199-.059-.48-.133-.843-.221a8.818 8.818 0 01-1.292-.38 2.16 2.16 0 01-.886-.639c-.269-.291-.424-.697-.476-1.205a2.142 2.142 0 01.235-1.266c.201-.373.512-.667.921-.903.399-.223.875-.363 1.427-.42.891-.091 1.612.052 2.173.416.573.363.926.919 1.069 1.645l-2.086.214a1.132 1.132 0 00-.347-.603c-.172-.13-.395-.187-.654-.161-.226.023-.4.098-.534.237-.123.138-.173.314-.149.551.02.192.104.343.23.467.148.11.306.208.506.267.2.059.482.144.844.232.525.118.96.244 1.304.38.344.135.64.356.911.658.27.303.425.709.479 1.228zM20.59 106.578l-6.802-13.527-.232 4.56a134.734 134.734 0 00-.194 3.943c-.077 1.275-.154 2.512-.309 3.71-.154 1.16-.386 2.242-.734 3.247-.31 1.044-.773 1.894-1.392 2.628-.618.735-1.391 1.314-2.357 1.739-1.005.426-2.203.619-3.672.619-.618 0-1.237-.039-1.855-.155a8.046 8.046 0 01-1.546-.464c-.464-.193-.812-.386-1.083-.657-.27-.27-.425-.541-.425-.85 0-.232.039-.464.116-.696.039-.231.155-.425.27-.618.117-.193.271-.348.465-.464.193-.154.386-.193.618-.193a.46.46 0 01.348.193c.116.155.232.309.348.541.116.194.232.425.386.657.155.232.348.464.58.657.232.232.502.387.812.542.348.115.734.193 1.237.193.966 0 1.777-.155 2.435-.503.657-.309 1.198-.811 1.623-1.43.464-.618.773-1.391 1.005-2.28.232-.889.386-1.894.502-3.054.039-.618.116-1.236.155-1.816.039-.58.116-1.16.154-1.739.04-.58.078-1.16.155-1.778.039-.58.077-1.237.116-1.894.077-.966.116-1.894.193-2.744.039-.89.078-1.701.116-2.474.039-.734.039-1.43.078-2.01 0-.618.038-1.12.038-1.585-.232-.425-.386-.773-.58-1.043-.154-.27-.309-.502-.502-.657a1.595 1.595 0 00-.58-.27c-.232-.04-.464-.078-.773-.078-.27 0-.58.039-.927.155-.387.077-.774.231-1.16.386-.387.193-.812.387-1.198.657-.387.27-.735.541-1.044.89-.309.347-.58.695-.773 1.081-.193.425-.27.85-.27 1.314 0 .426.038.735.154.967.116.232.232.425.387.54.116.117.27.194.425.233.155.038.232.038.31.038.308 0 .579-.038.772-.154.193-.116.387-.232.541-.348l.464-.348c.155-.077.31-.154.503-.154.154 0 .309.038.502.115.155.078.31.194.464.31.116.154.27.347.348.618.116.232.154.541.154.889 0 .502-.077.928-.27 1.314a2.858 2.858 0 01-.773.89c-.31.27-.657.424-1.044.579a4.439 4.439 0 01-1.198.154c-.58 0-1.16-.115-1.623-.309-.503-.193-.89-.502-1.237-.85-.348-.387-.58-.812-.773-1.276a4.41 4.41 0 01-.27-1.584c0-1.314.308-2.435.927-3.401.58-1.005 1.391-1.817 2.358-2.474.966-.657 2.087-1.12 3.324-1.469a15.636 15.636 0 013.787-.464c1.044 0 1.894.116 2.59.31a5.22 5.22 0 011.74.85c.463.348.85.734 1.159 1.198.309.464.58.966.811 1.469L23.45 99.08c1.314-2.55 2.474-4.831 3.556-6.88a139.453 139.453 0 012.938-5.333c.927-1.508 1.739-2.822 2.55-3.904.773-1.082 1.547-1.971 2.28-2.667.735-.657 1.47-1.16 2.204-1.507a5.545 5.545 0 012.242-.464c.657 0 1.198.154 1.623.425.425.31.618.734.618 1.275 0 .503-.077.928-.231 1.237-.194.348-.387.503-.696.503-.232 0-.425-.078-.541-.27-.116-.194-.27-.387-.387-.58a3.504 3.504 0 00-.425-.619 1.164 1.164 0 00-.773-.27c-.193 0-.464.077-.734.193-.31.116-.58.27-.89.502a6.176 6.176 0 00-1.739 2.01 8.48 8.48 0 00-.502 1.585c-.116.58-.155 1.198-.116 1.894.039.773.116 1.7.193 2.782.078 1.044.194 2.203.31 3.402.115 1.236.193 2.473.347 3.787l.348 3.827c.116 1.237.27 2.473.387 3.633.116 1.121.232 2.203.309 3.131.116.927.193 1.739.27 2.357.117.657.194 1.121.232 1.353.078.348.155.657.31.85.116.232.347.348.657.348.348 0 .657-.077.966-.193.31-.116.58-.232.812-.348l.309.696c-.232.155-.503.348-.85.541a6.902 6.902 0 01-1.199.618 8.11 8.11 0 01-1.468.464 8.26 8.26 0 01-1.74.194c-.85 0-1.546-.116-2.048-.348-.503-.194-.89-.464-1.16-.812-.27-.309-.463-.657-.54-1.005a5.748 5.748 0 01-.233-.966 52.972 52.972 0 01-.348-2.319c-.116-.928-.27-1.894-.386-2.938a412.696 412.696 0 01-.348-3.208c-.116-1.082-.193-2.164-.31-3.208a329.907 329.907 0 00-.231-2.976c-.077-.927-.155-1.739-.193-2.435a30.106 30.106 0 00-1.044 1.778 19.01 19.01 0 00-.927 1.74c-.31.618-.619 1.236-.928 1.893-.348.657-.657 1.353-1.005 2.126-.348.773-.734 1.623-1.12 2.551a63.716 63.716 0 00-1.354 3.053H20.59zM50.777 103.566c0-.309-.116-.541-.31-.696-.193-.193-.463-.271-.773-.271-.425 0-.85.116-1.275.31-.386.193-.734.502-1.043.889-.271.386-.542.85-.696 1.43-.194.579-.27 1.237-.27 2.01 0 .734.038 1.314.154 1.816.116.464.27.85.425 1.121.193.309.425.502.657.618.232.116.464.155.734.155.348 0 .657-.077.928-.271.31-.154.541-.386.773-.618.193-.271.386-.58.502-.889.116-.348.194-.657.194-1.005v-4.599zm-3.015-8.272c-.425 0-.812.078-1.198.155-.348.116-.657.232-.928.387-.27.154-.464.309-.618.502-.155.193-.232.348-.232.503 0 .193.077.347.31.425.192.077.386.154.618.27.27.116.463.27.657.464.193.193.309.502.309.889 0 .27-.078.502-.155.734-.116.194-.27.426-.464.58a1.688 1.688 0 01-.618.387 1.84 1.84 0 01-.773.154c-.696 0-1.276-.232-1.7-.734-.426-.464-.658-1.121-.658-1.894 0-.773.194-1.43.619-1.971.386-.541.927-1.005 1.546-1.353a7.82 7.82 0 012.203-.773c.811-.193 1.662-.27 2.473-.27.967 0 1.894.115 2.822.309.889.232 1.662.58 2.358 1.043a4.781 4.781 0 011.623 1.778c.425.696.618 1.585.618 2.59v10.667c0 .116 0 .232.039.387 0 .116.039.27.077.386a.717.717 0 00.232.271.696.696 0 00.425.116c.232 0 .425-.077.657-.271.194-.154.348-.348.503-.502l.464.386c-.194.271-.425.541-.657.851-.271.347-.619.618-.967.889a3.887 3.887 0 01-1.314.695 4.957 4.957 0 01-1.74.31 3.502 3.502 0 01-2.125-.696c-.618-.503-1.005-1.237-1.198-2.203a7.031 7.031 0 01-1.237 1.352 6.713 6.713 0 01-1.353.889 5.706 5.706 0 01-1.352.503 5.688 5.688 0 01-1.392.155 5.123 5.123 0 01-1.74-.31c-.579-.154-1.081-.464-1.545-.889a4.414 4.414 0 01-1.082-1.584c-.27-.657-.387-1.469-.387-2.397 0-1.159.232-2.087.657-2.821.464-.735 1.082-1.314 1.817-1.817a10.95 10.95 0 012.512-1.275c.928-.348 1.894-.735 2.86-1.121.735-.309 1.276-.734 1.585-1.314.348-.541.502-1.16.502-1.74 0-.927-.27-1.7-.811-2.241-.541-.58-1.276-.85-2.242-.85zM67.356 97.343a10.018 10.018 0 011.585-1.778 7.57 7.57 0 01.812-.696c.27-.193.58-.386.927-.54.348-.194.696-.31 1.044-.426a3.988 3.988 0 011.16-.154c.85 0 1.584.154 2.28.502.657.31 1.198.85 1.662 1.623.464.773.812 1.778 1.044 3.054.231 1.275.347 2.86.347 4.715 0 1.817-.154 3.401-.502 4.754-.31 1.353-.734 2.512-1.276 3.44a9.185 9.185 0 01-1.777 2.319 10.416 10.416 0 01-2.01 1.391c-.696.348-1.353.58-1.972.696-.618.155-1.159.232-1.623.232l-.193-.773c.58-.155 1.082-.387 1.507-.773.425-.387.812-1.005 1.121-1.855.31-.851.541-2.01.696-3.479.154-1.469.232-3.362.232-5.643 0-1.584-.078-2.86-.232-3.826-.155-.928-.31-1.662-.541-2.165-.27-.502-.503-.811-.812-.966-.31-.154-.58-.232-.889-.232-.386 0-.696.078-.966.27-.27.194-.541.426-.734.697a8.904 8.904 0 00-.542.734c-.116.27-.231.464-.347.58v12.6c0 .154-.04.348-.078.579-.038.232-.193.464-.386.696-.194.193-.464.348-.85.503-.387.154-.928.232-1.585.232-.657 0-1.198-.078-1.585-.232a2.54 2.54 0 01-.889-.58 1.217 1.217 0 01-.348-.657c-.038-.232-.077-.387-.077-.541v-24.35c0-.348-.077-.657-.27-.928-.155-.27-.426-.425-.85-.425-.194 0-.387.039-.542.116a1.187 1.187 0 00-.502.31l-.387-.465c.31-.231.618-.463.966-.695.348-.232.735-.464 1.16-.619.425-.193.889-.309 1.353-.425a6.186 6.186 0 011.507-.193c.812 0 1.469.116 1.894.348.464.193.811.463 1.005.811.232.31.348.657.386 1.005.039.348.078.696.078.967v10.242zM90.633 103.566c0-.309-.116-.541-.309-.696-.193-.193-.464-.271-.773-.271-.425 0-.85.116-1.275.31-.387.193-.735.502-1.044.889-.27.386-.541.85-.696 1.43-.193.579-.27 1.237-.27 2.01 0 .734.038 1.314.154 1.816.116.464.271.85.426 1.121.193.309.425.502.657.618.232.116.463.155.734.155.348 0 .657-.077.928-.271.309-.154.54-.386.773-.618.193-.271.386-.58.502-.889.116-.348.193-.657.193-1.005v-4.599zm-3.014-8.272c-.425 0-.812.078-1.198.155-.348.116-.658.232-.928.387-.27.154-.464.309-.618.502-.155.193-.233.348-.233.503 0 .193.078.347.31.425.193.077.386.154.618.27.27.116.464.27.657.464.194.193.31.502.31.889 0 .27-.078.502-.155.734-.116.194-.27.426-.464.58a1.688 1.688 0 01-.618.387 1.84 1.84 0 01-.773.154c-.696 0-1.276-.232-1.701-.734-.425-.464-.657-1.121-.657-1.894 0-.773.193-1.43.618-1.971.387-.541.928-1.005 1.546-1.353a7.822 7.822 0 012.203-.773c.812-.193 1.662-.27 2.474-.27.966 0 1.894.115 2.822.309.889.232 1.662.58 2.357 1.043a4.781 4.781 0 011.624 1.778c.425.696.618 1.585.618 2.59v10.667c0 .116 0 .232.039.387 0 .116.038.27.077.386a.717.717 0 00.232.271.696.696 0 00.425.116c.232 0 .425-.077.657-.271.193-.154.348-.348.502-.502l.464.386c-.193.271-.425.541-.657.851-.27.347-.618.618-.966.889a3.888 3.888 0 01-1.314.695 4.957 4.957 0 01-1.74.31 3.502 3.502 0 01-2.125-.696c-.619-.503-1.005-1.237-1.198-2.203a7.034 7.034 0 01-1.237 1.352 6.713 6.713 0 01-1.353.889 5.706 5.706 0 01-1.353.503 5.688 5.688 0 01-1.391.155 5.123 5.123 0 01-1.74-.31c-.58-.154-1.082-.464-1.545-.889a4.414 4.414 0 01-1.083-1.584c-.27-.657-.386-1.469-.386-2.397 0-1.159.232-2.087.657-2.821.464-.735 1.082-1.314 1.817-1.817a10.95 10.95 0 012.512-1.275c.927-.348 1.894-.735 2.86-1.121.734-.309 1.275-.734 1.585-1.314.347-.541.502-1.16.502-1.74 0-.927-.27-1.7-.812-2.241-.54-.58-1.275-.85-2.241-.85zM107.411 97.73c.464-.735.966-1.392 1.507-1.972.232-.27.503-.502.735-.734.27-.232.541-.464.85-.657.27-.193.58-.348.85-.425a2.66 2.66 0 01.928-.193c.618 0 1.121.193 1.507.58.348.386.541.927.541 1.623 0 .425-.038.85-.116 1.236-.038.387-.193.85-.386 1.43h-.541c-.078-.386-.232-.695-.541-.966-.271-.27-.657-.386-1.199-.386a3.1 3.1 0 00-1.159.232c-.348.115-.734.309-1.082.54a5.818 5.818 0 00-1.005.696 8.83 8.83 0 00-.889.696v12.252c0 .155-.039.348-.077.58-.039.232-.194.464-.387.657s-.464.348-.85.503c-.387.154-.928.232-1.585.232-.657 0-1.198-.078-1.585-.232-.386-.155-.657-.348-.85-.58a1.066 1.066 0 01-.386-.657c-.039-.232-.078-.387-.078-.541V97.072c0-.347-.077-.695-.27-.966-.155-.27-.425-.386-.851-.386-.193 0-.386.038-.54.116-.155.077-.31.193-.503.309l-.387-.464c.27-.232.619-.464.967-.696.347-.232.734-.463 1.159-.618.425-.193.85-.348 1.353-.425a6.186 6.186 0 011.507-.193c.541 0 1.005.077 1.392.231.386.155.695.31.927.541.271.232.425.503.58.812.155.27.232.58.309.85.078.31.116.58.116.85.039.271.039.503.039.697zM122.183 111.682c0 .155-.039.348-.077.58a1.389 1.389 0 01-.425.657c-.194.193-.503.348-.889.503-.387.154-.928.232-1.585.232-.657 0-1.198-.078-1.585-.232-.386-.155-.657-.348-.811-.58a1.208 1.208 0 01-.348-.657c-.039-.232-.078-.387-.078-.541v-24.35c0-.348-.077-.657-.27-.928-.155-.27-.425-.425-.851-.425-.193 0-.386.039-.541.116a1.192 1.192 0 00-.502.31l-.387-.465c.31-.231.619-.463.967-.695.348-.232.734-.464 1.159-.619.425-.193.889-.309 1.353-.425a6.186 6.186 0 011.507-.193c.812 0 1.469.116 1.894.348.464.193.812.463 1.005.811.232.31.348.657.387 1.005.038.348.077.696.077.967v24.581zM132.96 111.641c0 .154-.038.348-.077.579a1.692 1.692 0 01-.425.696c-.194.193-.503.348-.889.503-.387.154-.928.232-1.585.232-.657 0-1.198-.078-1.546-.232-.386-.155-.657-.348-.85-.58a1.214 1.214 0 01-.348-.657c-.077-.232-.077-.387-.077-.541V97.069c0-.347-.078-.695-.271-.966-.155-.27-.425-.386-.85-.386a1.23 1.23 0 00-.541.116c-.155.077-.31.193-.503.309l-.386-.464c.27-.232.618-.464.966-.696.348-.232.734-.463 1.159-.618a5.05 5.05 0 011.353-.425 6.183 6.183 0 011.508-.193c.811 0 1.43.116 1.893.347.464.194.812.464 1.005.812.232.31.348.657.387 1.005.039.386.077.696.077.966v14.765zm-6.377-22.186c0-.347.077-.695.232-1.005.154-.347.386-.618.657-.85.27-.232.618-.425.966-.58a4.153 4.153 0 011.237-.193c.425 0 .812.077 1.198.193.348.155.696.348.966.58.271.232.503.503.657.85.155.31.232.657.232 1.005 0 .348-.077.696-.232 1.005a2.63 2.63 0 01-.657.812c-.27.232-.618.425-.966.58a4.091 4.091 0 01-1.198.193c-.464 0-.85-.077-1.237-.193-.348-.155-.696-.348-.966-.58a2.63 2.63 0 01-.657-.812 2.25 2.25 0 01-.232-1.005zM143.545 98.889c.425-.58.928-1.198 1.43-1.817.503-.58 1.044-1.16 1.624-1.623.579-.502 1.198-.889 1.855-1.237a5.415 5.415 0 012.242-.463c.734 0 1.314.154 1.778.425.502.27.889.618 1.159 1.043.309.387.503.773.657 1.198.116.464.155.812.155 1.121 0 .541-.078 1.121-.194 1.7-.154.62-.425 1.199-.773 1.779-.309.618-.773 1.159-1.352 1.7-.58.58-1.314 1.044-2.203 1.508 1.198 2.512 2.319 4.676 3.44 6.454 1.12 1.817 2.203 3.324 3.246 4.484 1.044 1.159 2.049 2.01 2.976 2.551.967.58 1.894.85 2.744.85.155 0 .31-.039.464-.077.155-.039.271-.077.425-.116.116-.039.271-.116.426-.193l.347.657c-.347.193-.695.386-1.043.541a7.244 7.244 0 01-1.198.425c-.464.155-.967.232-1.546.309a17.23 17.23 0 01-2.126.116 8.607 8.607 0 01-2.203-.27 6.23 6.23 0 01-2.165-.928 12.874 12.874 0 01-2.241-1.817c-.735-.734-1.508-1.7-2.281-2.86-.811-1.159-1.623-2.551-2.435-4.135-.85-1.585-1.7-3.479-2.589-5.605 1.198-.889 2.164-1.739 2.86-2.473.696-.773 1.198-1.469 1.546-2.087.348-.619.58-1.16.657-1.624.116-.502.154-.889.154-1.237 0-.038 0-.116-.038-.27a.626.626 0 00-.116-.348.717.717 0 00-.309-.27c-.116-.117-.31-.155-.541-.155-.464 0-.928.193-1.43.618a8.344 8.344 0 00-1.353 1.469c-.425.58-.851 1.198-1.198 1.855a33.87 33.87 0 00-.851 1.855v9.74c0 .155-.038.348-.077.58a1.374 1.374 0 01-.425.657c-.193.193-.503.348-.889.503-.387.154-.928.232-1.585.232-.657 0-1.198-.078-1.585-.232-.386-.155-.657-.348-.811-.58a1.221 1.221 0 01-.348-.657c-.039-.232-.077-.387-.077-.541v-24.35c0-.348-.078-.657-.271-.928-.154-.27-.425-.425-.85-.425-.193 0-.387.039-.541.116a1.189 1.189 0 00-.503.31l-.386-.465c.309-.231.618-.463.966-.695.348-.232.734-.464 1.16-.619.425-.193.888-.309 1.352-.425a6.194 6.194 0 011.508-.193c.811 0 1.468.116 1.894.348.463.193.811.463 1.004.811.232.31.348.657.387 1.005.039.348.077.696.077.967v11.788z" fill="#fff"/><path d="M166.726 103.566c0-.309-.116-.541-.309-.696-.194-.193-.464-.271-.773-.271-.425 0-.851.116-1.276.31-.386.193-.734.502-1.043.889-.271.386-.541.85-.696 1.43-.193.579-.271 1.237-.271 2.01 0 .734.039 1.314.155 1.816.116.464.271.85.425 1.121.193.309.425.502.657.618.232.116.464.155.735.155.347 0 .657-.077.927-.271.309-.154.541-.386.773-.618.193-.271.387-.58.503-.889.116-.348.193-.657.193-1.005v-4.599zm-3.015-8.272c-.425 0-.811.078-1.198.155a5.167 5.167 0 00-.928.387c-.27.154-.463.309-.618.502-.155.193-.232.348-.232.503 0 .193.077.347.309.425.194.077.387.154.619.27.27.116.463.27.657.464.193.193.309.502.309.889 0 .27-.077.502-.155.734-.116.194-.27.426-.463.58a1.693 1.693 0 01-.619.387c-.27.116-.502.154-.773.154-.696 0-1.275-.232-1.701-.734-.425-.464-.657-1.121-.657-1.894 0-.773.194-1.43.619-1.971.386-.541.927-1.005 1.546-1.353a7.816 7.816 0 012.203-.773c.812-.193 1.662-.27 2.474-.27.966 0 1.893.115 2.821.309.889.232 1.662.58 2.358 1.043a4.782 4.782 0 011.623 1.778c.425.696.619 1.585.619 2.59v10.667c0 .116 0 .232.038.387 0 .116.039.27.077.386a.72.72 0 00.232.271.698.698 0 00.426.116c.231 0 .425-.077.657-.271.193-.154.347-.348.502-.502l.464.386c-.193.271-.425.541-.657.851-.271.347-.619.618-.966.889a3.89 3.89 0 01-1.315.695 4.955 4.955 0 01-1.739.31 3.504 3.504 0 01-2.126-.696c-.618-.503-1.005-1.237-1.198-2.203a6.99 6.99 0 01-2.589 2.241 5.717 5.717 0 01-1.353.503 5.693 5.693 0 01-1.392.155 5.123 5.123 0 01-1.739-.31c-.58-.154-1.082-.464-1.546-.889a4.408 4.408 0 01-1.082-1.584c-.271-.657-.387-1.469-.387-2.397 0-1.159.232-2.087.657-2.821.464-.735 1.083-1.314 1.817-1.817a10.947 10.947 0 012.512-1.275c.928-.348 1.894-.735 2.86-1.121.735-.309 1.276-.734 1.585-1.314a3.23 3.23 0 00.503-1.74c0-.927-.271-1.7-.812-2.241-.541-.58-1.276-.85-2.242-.85z" fill="#fff"/><path fill-rule="evenodd" clip-rule="evenodd" d="M82.263 57.898c.413-.138.834-.26 1.26-.365L82.276 47.21c-.036-.307.05-.617.238-.863l1.354-1.753a.118.118 0 01.128-.04c.047.014.08.056.084.105l.81 12.6c.173-.028.345-.052.52-.074l-.713-12.549c-.028-.48.093-.955.343-1.365l2.265-3.695a.118.118 0 01.102-.056c.04 0 .079.022.099.056l2.245 3.689c.252.413.37.895.338 1.377l-.816 12.52c.2.023.397.05.595.079l.809-12.582a.118.118 0 01.083-.105.118.118 0 01.129.04l1.354 1.753c.189.246.273.556.236.863l-1.243 10.295c.43.102.855.221 1.271.357l2.395-7.16c.076-.228.22-.428.413-.571l2.248-1.68a.121.121 0 01.114-.015c.037.016.065.05.071.09l.467 2.758c.04.238.006.484-.099.702l-3.26 6.849c.402.204.794.423 1.176.66l6.404-8.162c.19-.244.47-.402.776-.442l2.198-.281a.117.117 0 01.119.062.116.116 0 01-.015.133l-8.325 9.47c.14.104.278.21.415.319l8.361-9.369c.32-.358.742-.61 1.209-.722 1.197-.287 3.538-.849 4.215-1.01.04-.012.082 0 .111.03.03.03.04.071.031.111-.164.674-.73 2.998-1.02 4.195-.115.47-.371.895-.736 1.213l-9.434 8.28c.124.157.246.315.365.475 0 0 7.993-7.026 9.472-8.328a.12.12 0 01.135-.016.115.115 0 01.06.12l-.281 2.198a1.18 1.18 0 01-.442.778l-8.165 6.405c.246.402.476.815.69 1.237l6.898-3.423c.215-.108.458-.146.696-.112l2.775.409a.12.12 0 01.091.07.114.114 0 01-.012.114l-1.625 2.275a1.178 1.178 0 01-.566.427l-7.301 2.574c.141.435.265.878.37 1.328l11.47-1.377c.304-.036.611.048.855.233l1.784 1.358c.039.03.056.081.04.128a.115.115 0 01-.103.083l-13.795.888c.024.17.047.34.066.51l14.121-.801c.24-.014.478.046.684.172l3.817 2.34c.045.027.066.08.052.132a.12.12 0 01-.114.086H52.546a.117.117 0 01-.113-.086.117.117 0 01.05-.132l3.495-2.147c.41-.25.887-.371 1.367-.345 2.948.169 13.719.78 13.719.78.02-.17.042-.34.066-.51 0 0-11.684-.752-13.762-.887a.118.118 0 01-.063-.212l1.777-1.357c.244-.185.552-.269.857-.232l11.442 1.376c.102-.439.22-.87.357-1.294l-7.255-2.546a1.171 1.171 0 01-.563-.42l-1.647-2.273a.116.116 0 01-.012-.115.118.118 0 01.09-.07l2.764-.426c.24-.036.484.002.7.108l6.877 3.402c.204-.41.427-.81.663-1.2 0 0-6.581-5.164-8.248-6.47a1.18 1.18 0 01-.442-.778l-.283-2.199a.119.119 0 01.062-.119.117.117 0 01.133.016l9.548 8.395c.104-.142.209-.281.315-.42L65 55.018a2.365 2.365 0 01-.724-1.208l-1.01-4.215a.122.122 0 01.03-.111.124.124 0 01.111-.031l4.196 1.022c.47.114.894.37 1.214.734l8.327 9.488c.156-.125.314-.247.473-.366l-8.373-9.525a.117.117 0 01-.016-.133.119.119 0 01.12-.062l2.198.281c.306.04.586.198.776.442l6.442 8.211c.376-.233.762-.454 1.156-.658 0 0-2.618-5.39-3.302-6.795a1.172 1.172 0 01-.105-.696l.431-2.772a.117.117 0 01.186-.077l2.262 1.643c.196.142.343.342.422.57l2.45 7.139z" fill="#FFEA95"/></g><defs><clipPath id="clip0"><path fill="#fff" d="M0 0h175v175H0z"/></clipPath></defs></svg>